<svg width="52" height="54" viewBox="0 0 52 54" fill="none" xmlns="http://www.w3.org/2000/svg">
<path d="M25.7943 53.4374C24.8271 53.4374 23.8522 53.2887 22.9681 52.973C20.6681 52.1525 19.3333 50.4177 19.2095 48.0873C19.0674 45.4171 20.0471 42.352 22.1895 38.7975C20.1961 35.94 18.2655 32.8073 17.0633 29.7355C7.84668 25.4087 3.78728 18.9407 2.00567 13.8995C-0.278898 7.43919 0.575154 2.00317 0.612875 1.77534L0.883696 0.127441L2.09078 1.28396C2.16913 1.35926 10.0684 8.87567 18.9764 13.243C19.2124 13.3579 19.4949 13.3164 19.6806 13.1368C20.3499 12.4891 21.0105 11.823 21.8897 10.9116C22.7563 10.0119 24.1597 8.75403 26.3302 8.22115C28.2288 7.75487 30.1352 8.1333 31.4274 9.23576C32.0687 9.78216 32.6093 10.5931 32.9343 11.4909C34.0215 11.6531 34.8426 11.849 35.0748 11.906L37.4338 12.491L35.246 13.5491C35.2237 13.5597 32.7196 14.8272 31.4293 18.0371C31.2901 18.3846 31.1943 18.708 31.1334 19.016C34.5438 19.1154 37.6195 19.5547 40.6353 19.9852C43.6724 20.4187 46.5402 20.828 49.7117 20.9129L51.1412 20.9516L50.4632 22.2075C50.3771 22.3678 48.2918 26.1704 43.8107 29.2798C40.5154 31.5668 35.3833 33.7968 28.3758 33.0612C27.8622 33.8268 27.2742 34.6435 26.5991 35.5162C25.7353 36.6341 24.9703 37.7095 24.3039 38.7425C25.392 40.261 26.4791 41.6907 27.4521 42.9689C29.2425 45.3215 30.6565 47.1798 31.2533 48.4628C31.7814 49.5962 31.6063 50.7691 30.7736 51.6804C29.7473 52.8022 27.7907 53.4374 25.7943 53.4374ZM23.3134 40.372C21.6421 43.3164 20.8548 45.8679 20.9679 47.9936C21.0753 50.0161 22.4371 50.9178 23.561 51.3184C25.7885 52.1129 28.52 51.5385 29.4736 50.494C29.8344 50.0991 29.8915 49.7004 29.6584 49.2004C29.1409 48.0883 27.7085 46.2067 26.0507 44.0279C25.2005 42.9109 24.2632 41.6791 23.3134 40.372ZM19.4175 30.7472C20.4437 32.9212 21.7978 35.1146 23.2167 37.1892C23.8125 36.303 24.4751 35.3878 25.2053 34.4417C25.6531 33.8615 26.0613 33.3103 26.4308 32.7861C25.2159 32.5718 23.9499 32.2696 22.6315 31.8661C21.5047 31.5195 20.4331 31.1459 19.4175 30.7472ZM29.4175 31.4027C34.3445 31.7647 38.8092 30.5889 42.7438 27.8791C45.4046 26.0458 47.1776 23.9104 48.1157 22.6004C45.4211 22.4411 42.8686 22.0772 40.3867 21.7229C37.4367 21.302 34.4267 20.8724 31.1082 20.7739C31.1576 21.134 31.232 21.4999 31.3113 21.8889C31.7398 24.0128 32.2544 26.5536 29.4175 31.4027ZM18.4628 28.4525C19.9291 29.1003 21.4922 29.6785 23.149 30.1863C24.6337 30.641 26.0845 30.9741 27.4986 31.1874C30.4437 26.4832 29.9921 24.2483 29.5849 22.2365C29.4872 21.7538 29.3885 21.2663 29.3324 20.7537C27.5479 20.7681 25.6676 20.8878 23.6568 21.1601C21.1962 21.4941 19.4465 22.4044 18.5963 23.7927C17.8583 24.9994 17.8071 26.599 18.4503 28.4178C18.4541 28.4293 18.458 28.4409 18.4628 28.4525ZM2.21072 3.77463C2.13624 5.80771 2.27552 9.42207 3.69249 13.3888C5.86583 19.4736 10.1177 24.1817 16.3727 27.4466C16.0612 25.7282 16.304 24.1691 17.0942 22.8765C18.2288 21.022 20.4166 19.8259 23.4198 19.4195C25.5284 19.1338 27.4928 19.0092 29.3518 18.9947C29.4166 18.5487 29.5346 18.0767 29.7232 17.5708C28.9426 17.8392 28.1205 17.9454 27.3554 17.8401C25.9462 17.6451 25.0012 16.7647 24.7614 15.4238C24.4876 13.8898 25.0757 12.966 25.6164 12.4611C26.7925 11.3634 28.9301 11.1694 30.8829 11.2756C30.7068 10.9995 30.5027 10.7562 30.2842 10.5699C29.4224 9.83429 28.1012 9.59391 26.7509 9.926C25.0244 10.3498 23.8734 11.3866 23.1587 12.129C22.265 13.0567 21.5908 13.7354 20.906 14.3976C20.1893 15.0908 19.1022 15.2597 18.2017 14.8195C11.143 11.3596 4.86863 6.13497 2.21072 3.77463ZM29.9176 13.0065C28.5799 13.0065 27.398 13.2034 26.8177 13.745C26.6087 13.941 26.3466 14.2953 26.4936 15.1168C26.5594 15.4827 26.7441 15.9828 27.5963 16.1015C28.8043 16.2685 30.6933 15.4701 31.3162 14.191C31.4738 13.8667 31.527 13.4844 31.4999 13.0857C30.967 13.0355 30.4302 13.0065 29.9176 13.0065Z" fill="#002638"/>
</svg>
