<svg xmlns="http://www.w3.org/2000/svg" version="1.1" xmlns:xlink="http://www.w3.org/1999/xlink" xmlns:svgjs="http://svgjs.com/svgjs" width="66" height="79"><svg id="SvgjsSvg1061" xmlns="http://www.w3.org/2000/svg" xmlns:xlink="http://www.w3.org/1999/xlink" viewBox="0 0 66 79" shape-rendering="geometricPrecision" text-rendering="geometricPrecision"><defs><g id="SvgjsG1060"><path id="SvgjsPath1059" d="M7.734375,0.34375C6.535156,0.34375,5.34375,0.125,4.15625,-0.3125C2.96875,-0.757812,1.910156,-1.421875,0.984375,-2.296875L3.328125,-5.125C3.984375,-4.5625,4.707031,-4.101562,5.5,-3.75C6.289062,-3.394531,7.070312,-3.21875,7.84375,-3.21875C8.695312,-3.21875,9.332031,-3.375,9.75,-3.6875C10.175781,-4.007812,10.390625,-4.441406,10.390625,-4.984375C10.390625,-5.265625,10.328125,-5.503906,10.203125,-5.703125C10.085938,-5.910156,9.910156,-6.09375,9.671875,-6.25C9.441406,-6.414062,9.160156,-6.566406,8.828125,-6.703125C8.503906,-6.847656,8.144531,-7.003906,7.75,-7.171875L5.375,-8.171875C4.90625,-8.359375,4.453125,-8.601562,4.015625,-8.90625C3.578125,-9.207031,3.1875,-9.554688,2.84375,-9.953125C2.5,-10.359375,2.222656,-10.828125,2.015625,-11.359375C1.804688,-11.890625,1.703125,-12.488281,1.703125,-13.15625C1.703125,-13.90625,1.859375,-14.609375,2.171875,-15.265625C2.492188,-15.929688,2.941406,-16.507812,3.515625,-17C4.097656,-17.5,4.785156,-17.890625,5.578125,-18.171875C6.378906,-18.453125,7.253906,-18.59375,8.203125,-18.59375C9.265625,-18.59375,10.3125,-18.382812,11.34375,-17.96875C12.382812,-17.5625,13.296875,-16.96875,14.078125,-16.1875L11.984375,-13.578125C11.390625,-14.046875,10.789062,-14.40625,10.1875,-14.65625C9.59375,-14.90625,8.929688,-15.03125,8.203125,-15.03125C7.492188,-15.03125,6.925781,-14.882812,6.5,-14.59375C6.082031,-14.3125,5.875,-13.910156,5.875,-13.390625C5.875,-13.109375,5.941406,-12.867188,6.078125,-12.671875C6.222656,-12.472656,6.421875,-12.296875,6.671875,-12.140625C6.929688,-11.984375,7.226562,-11.832031,7.5625,-11.6875C7.894531,-11.550781,8.257812,-11.398438,8.65625,-11.234375L11,-10.28125C12.125,-9.832031,13.003906,-9.210938,13.640625,-8.421875C14.285156,-7.640625,14.609375,-6.601562,14.609375,-5.3125C14.609375,-4.550781,14.453125,-3.828125,14.140625,-3.140625C13.835938,-2.460938,13.390625,-1.867188,12.796875,-1.359375C12.210938,-0.847656,11.492188,-0.4375,10.640625,-0.125C9.785156,0.1875,8.816406,0.34375,7.734375,0.34375ZM7.734375,0.34375" fill="rgb(0,0,0)" stroke-width="1"></path></g><g id="SvgjsG1058"><path id="SvgjsPath1057" d="M2.15625,0L2.15625,-18.25L6.265625,-18.25L6.265625,-11.234375L12.578125,-11.234375L12.578125,-18.25L16.71875,-18.25L16.71875,0L12.578125,0L12.578125,-7.609375L6.265625,-7.609375L6.265625,0ZM2.15625,0" fill="rgb(0,0,0)" stroke-width="1"></path></g><g id="SvgjsG1056"><path id="SvgjsPath1055" d="M6.4375,-9.234375L5.984375,-7.5625L9.890625,-7.5625L9.46875,-9.234375C9.207031,-10.148438,8.953125,-11.117188,8.703125,-12.140625C8.460938,-13.171875,8.222656,-14.164062,7.984375,-15.125L7.875,-15.125C7.644531,-14.144531,7.410156,-13.144531,7.171875,-12.125C6.941406,-11.113281,6.695312,-10.148438,6.4375,-9.234375ZM-0.171875,0L5.546875,-18.25L10.5,-18.25L16.21875,0L11.84375,0L10.71875,-4.34375L5.15625,-4.34375L4.03125,0ZM-0.171875,0" fill="rgb(0,0,0)" stroke-width="1"></path></g><g id="SvgjsG1054"><path id="SvgjsPath1053" d="M2.15625,0L2.15625,-18.25L8.734375,-18.25C9.703125,-18.25,10.609375,-18.15625,11.453125,-17.96875C12.304688,-17.789062,13.050781,-17.476562,13.6875,-17.03125C14.320312,-16.59375,14.828125,-16.007812,15.203125,-15.28125C15.578125,-14.5625,15.765625,-13.660156,15.765625,-12.578125C15.765625,-11.234375,15.46875,-10.125,14.875,-9.25C14.289062,-8.382812,13.503906,-7.738281,12.515625,-7.3125L16.65625,0L12.046875,0L8.546875,-6.578125L6.265625,-6.578125L6.265625,0ZM6.265625,-9.859375L8.40625,-9.859375C9.488281,-9.859375,10.3125,-10.085938,10.875,-10.546875C11.445312,-11.003906,11.734375,-11.679688,11.734375,-12.578125C11.734375,-13.472656,11.445312,-14.097656,10.875,-14.453125C10.3125,-14.804688,9.488281,-14.984375,8.40625,-14.984375L6.265625,-14.984375ZM6.265625,-9.859375" fill="rgb(0,0,0)" stroke-width="1"></path></g><g id="SvgjsG1052"><path id="SvgjsPath1051" d="M2.15625,0L2.15625,-18.25L13.578125,-18.25L13.578125,-14.78125L6.265625,-14.78125L6.265625,-11.109375L12.484375,-11.109375L12.484375,-7.671875L6.265625,-7.671875L6.265625,-3.46875L13.859375,-3.46875L13.859375,0ZM2.15625,0" transform="matrix(1 0 0 1 0.000001 0)" fill="rgb(0,0,0)" stroke-width="1"></path></g><g id="SvgjsG1050"><path id="SvgjsPath1049" d="M2.15625,0L2.15625,-18.25L6.265625,-18.25L6.265625,-3.46875L13.5,-3.46875L13.5,0ZM2.15625,0" fill="rgb(0,0,0)" stroke-width="1"></path></g><g id="SvgjsG1048"><path id="SvgjsPath1047" d="M5.296875,0L5.296875,-6.5L-0.21875,-18.25L4.203125,-18.25L5.828125,-14.0625C6.085938,-13.363281,6.332031,-12.691406,6.5625,-12.046875C6.800781,-11.410156,7.050781,-10.738281,7.3125,-10.03125L7.421875,-10.03125C7.679688,-10.738281,7.9375,-11.410156,8.1875,-12.046875C8.4375,-12.691406,8.691406,-13.363281,8.953125,-14.0625L10.609375,-18.25L14.921875,-18.25L9.40625,-6.5L9.40625,0ZM5.296875,0" transform="matrix(1 0 0 1 0.000001 0)" fill="rgb(0,0,0)" stroke-width="1"></path></g></defs><g id="SvgjsG1046" transform="matrix(1 0 0 1 -59.162655 -152.700119)"><g id="SvgjsG1045" transform="matrix(0.796383 0 0 0.796383 18.795997 39.119121)"><path id="SvgjsPath1044" d="M92.3125,200.542969L92.3125,193.027344L50.6875,193.027344L50.6875,216.417969L92.3125,216.417969ZM50.6875,216.417969L92.3125,241.621094L92.3125,216.417969ZM50.6875,167.824219L92.3125,167.824219L92.3125,193.027344L50.6875,193.027344ZM50.6875,167.824219" fill="rgb(140,82,255)" stroke="none" stroke-width="1"></path><path id="SvgjsPath1043" d="M92.3125,193.027344L92.3125,216.417969L133.933594,216.417969L133.933594,193.027344ZM92.3125,167.824219L133.933594,167.824219L133.933594,193.027344L92.3125,193.027344ZM92.3125,241.621094C118.662566,227.032078,187.004202,217.464762,227.478649,216.417968L92.3125,216.417969ZM92.3125,241.621094" transform="matrix(1 0 0 1 0 0.151919)" fill="rgb(94,23,235)" stroke="none" stroke-width="1"></path><path id="SvgjsPath1042" d="M92.3125,193.027344L50.6875,167.824219L92.3125,142.621094L133.933594,167.824219ZM92.3125,193.027344" fill="rgb(0,74,173)" stroke="none" stroke-width="1"></path></g><g id="SvgjsG1041" transform="matrix(1 0 0 1 0 -1)"><use id="SvgjsUse1040" width="13.625" height="18.9375" xlink:href="#ekruZhHMAsK2" transform="matrix(1 0 0 1 165.693 201.934)" fill="rgb(255,0,255)" stroke="none" stroke-width="1"></use></g><g id="SvgjsG1039"><use id="SvgjsUse1038" width="14.5" height="18.25" xlink:href="#ekruZhHMAsK8" transform="matrix(1 0 0 1 216.17 201.934)" fill="rgb(255,0,255)" stroke="none" stroke-width="1"></use></g><g id="SvgjsG1037"><use id="SvgjsUse1036" width="11.703125" height="18.25" xlink:href="#ekruZhHMAsK10" transform="matrix(1 0 0 1 233.331001 201.934)" fill="rgb(255,0,255)" stroke="none" stroke-width="1"></use></g><g id="SvgjsG1035"><use id="SvgjsUse1034" width="11.34375" height="18.25" xlink:href="#ekruZhHMAsK12" transform="matrix(1 0 0 1 248.673 201.934)" fill="rgb(255,0,255)" stroke="none" stroke-width="1"></use></g><g id="SvgjsG1033" transform="matrix(1 0 0 1 0 -10)"><use id="SvgjsUse1032" width="16.390625" height="18.25" xlink:href="#ekruZhHMAsK6" transform="matrix(1 0 0 1 200.128 201.934)" fill="rgb(255,0,255)" stroke="none" stroke-width="1"></use></g><g id="SvgjsG1031"><use id="SvgjsUse1030" width="15.140625" height="18.25" xlink:href="#ekruZhHMAsK14" transform="matrix(1 0 0 1 263.175001 201.934)" fill="rgb(255,0,255)" stroke="none" stroke-width="1"></use></g><g id="SvgjsG1029"><use id="SvgjsUse1028" width="13.625" height="18.9375" xlink:href="#ekruZhHMAsK2" transform="matrix(1 0 0 1 149.077 201.934)" fill="rgb(0,255,255)" stroke="none" stroke-width="1"></use></g><g id="SvgjsG1027"><use id="SvgjsUse1026" width="13.625" height="18.9375" xlink:href="#ekruZhHMAsK2" transform="matrix(1 0 0 1 164.643 201.934)" fill="rgb(0,255,255)" stroke="none" stroke-width="1"></use></g><g id="SvgjsG1025" transform="matrix(2.882016 0 0 1 -356.916914 0)"><use id="SvgjsUse1024" width="14.5625" height="18.25" xlink:href="#ekruZhHMAsK4" transform="matrix(1 0 0 1 180.209 201.934)" fill="rgb(0,255,255)" stroke="none" stroke-width="1"></use></g><g id="SvgjsG1023"><use id="SvgjsUse1022" width="16.390625" height="18.25" xlink:href="#ekruZhHMAsK6" transform="matrix(1 0 0 1 199.078 201.934)" fill="rgb(0,255,255)" stroke="none" stroke-width="1"></use></g><g id="SvgjsG1021"><use id="SvgjsUse1020" width="14.5" height="18.25" xlink:href="#ekruZhHMAsK8" transform="matrix(1 0 0 1 215.12 201.934)" fill="rgb(0,255,255)" stroke="none" stroke-width="1"></use></g><g id="SvgjsG1019"><use id="SvgjsUse1018" width="11.703125" height="18.25" xlink:href="#ekruZhHMAsK10" transform="matrix(1 0 0 1 232.281001 201.934)" fill="rgb(0,255,255)" stroke="none" stroke-width="1"></use></g><g id="SvgjsG1017"><use id="SvgjsUse1016" width="11.34375" height="18.25" xlink:href="#ekruZhHMAsK12" transform="matrix(1 0 0 1 247.623 201.934)" fill="rgb(0,255,255)" stroke="none" stroke-width="1"></use></g><g id="SvgjsG1015"><use id="SvgjsUse1014" width="15.140625" height="18.25" xlink:href="#ekruZhHMAsK14" transform="matrix(1 0 0 1 262.125001 201.934)" fill="rgb(0,255,255)" stroke="none" stroke-width="1"></use></g><g id="SvgjsG1013"><use id="SvgjsUse1012" width="13.625" height="18.9375" xlink:href="#ekruZhHMAsK2" transform="matrix(1 0 0 1 149.602 201.934)" fill="rgb(0,0,0)" stroke="none" stroke-width="1"></use></g><g id="SvgjsG1011"><use id="SvgjsUse1010" width="13.625" height="18.9375" xlink:href="#ekruZhHMAsK2" transform="matrix(1 0 0 1 165.168 201.934)" fill="rgb(0,0,0)" stroke="none" stroke-width="1"></use></g><g id="SvgjsG1009"><use id="SvgjsUse1008" width="16.390625" height="18.25" xlink:href="#ekruZhHMAsK6" transform="matrix(1 0 0 1 199.603 201.934)" fill="rgb(0,0,0)" stroke="none" stroke-width="1"></use></g><g id="SvgjsG1007"><use id="SvgjsUse1006" width="14.5" height="18.25" xlink:href="#ekruZhHMAsK8" transform="matrix(1 0 0 1 215.645 201.934)" fill="rgb(0,0,0)" stroke="none" stroke-width="1"></use></g><g id="SvgjsG1005"><use id="SvgjsUse1004" width="11.703125" height="18.25" xlink:href="#ekruZhHMAsK10" transform="matrix(1 0 0 1 232.806001 201.934)" fill="rgb(0,0,0)" stroke="none" stroke-width="1"></use></g><g id="SvgjsG1003"><use id="SvgjsUse1002" width="11.34375" height="18.25" xlink:href="#ekruZhHMAsK12" transform="matrix(1 0 0 1 248.148 201.934)" fill="rgb(0,0,0)" stroke="none" stroke-width="1"></use></g><g id="SvgjsG1001"><use id="SvgjsUse1000" width="15.140625" height="18.25" xlink:href="#ekruZhHMAsK14" transform="matrix(1 0 0 1 262.650001 201.934)" fill="rgb(0,0,0)" stroke="none" stroke-width="1"></use></g></g></svg><style>@media (prefers-color-scheme: light) { :root { filter: none; } }
</style></svg>