<svg xmlns="http://www.w3.org/2000/svg" xmlns:xlink="http://www.w3.org/1999/xlink" viewBox="0 0 219 79" shape-rendering="geometricPrecision" text-rendering="geometricPrecision"><defs><path d="M7.734.344c-1.199 0-2.39-.219-3.578-.656A9.37 9.37 0 0 1 .984-2.298l2.344-2.828A8.81 8.81 0 0 0 5.5-3.75c.79.355 1.57.531 2.344.531.851 0 1.488-.156 1.906-.469.426-.32.64-.753.64-1.296 0-.282-.062-.52-.187-.72a1.605 1.605 0 0 0-.531-.546 4.237 4.237 0 0 0-.844-.453c-.324-.145-.683-.3-1.078-.469l-2.375-1a6.767 6.767 0 0 1-1.36-.734 6.11 6.11 0 0 1-1.171-1.047 4.93 4.93 0 0 1-.828-1.406c-.211-.532-.313-1.13-.313-1.797 0-.75.156-1.453.469-2.11.32-.664.77-1.242 1.344-1.734.582-.5 1.27-.89 2.062-1.172.8-.281 1.676-.422 2.625-.422 1.063 0 2.11.211 3.14.625 1.04.407 1.954 1 2.735 1.782l-2.094 2.609a7.665 7.665 0 0 0-1.796-1.078c-.594-.25-1.258-.375-1.985-.375-.71 0-1.277.148-1.703.437-.418.281-.625.684-.625 1.203 0 .282.066.524.203.72.145.198.344.374.594.53.258.157.555.309.89.454.333.136.696.289 1.094.453l2.344.953c1.125.449 2.004 1.07 2.64 1.86.645.78.97 1.82.97 3.108 0 .762-.157 1.485-.47 2.172a5.026 5.026 0 0 1-1.343 1.782c-.586.511-1.305.921-2.156 1.234-.856.313-1.825.469-2.907.469Zm0 0" id="a"/><path d="M2.156 0v-18.25h4.11v7.016h6.312v-7.016h4.14V0h-4.14v-7.61H6.266V0Zm0 0" id="b"/><path d="m6.438-9.234-.454 1.671h3.907l-.422-1.671a76.773 76.773 0 0 1-.766-2.907c-.242-1.03-.48-2.023-.719-2.984h-.109l-.703 3a58.639 58.639 0 0 1-.734 2.89ZM-.173 0l5.719-18.25H10.5L16.219 0h-4.375l-1.125-4.344H5.156L4.031 0Zm0 0" id="c"/><path d="M2.156 0v-18.25h6.578c.97 0 1.875.094 2.72.281.85.18 1.597.492 2.233.938a4.722 4.722 0 0 1 1.516 1.75c.375.719.563 1.62.563 2.703 0 1.344-.297 2.453-.891 3.328a5.32 5.32 0 0 1-2.36 1.938L16.657 0h-4.61l-3.5-6.578h-2.28V0Zm4.11-9.86h2.14c1.082 0 1.906-.226 2.469-.687.57-.457.86-1.133.86-2.031 0-.895-.29-1.52-.86-1.875-.563-.352-1.387-.531-2.469-.531h-2.14Zm0 0" id="d"/><path d="M2.156 0v-18.25h11.422v3.469H6.266v3.672h6.218v3.437H6.266v4.203h7.593V0Zm0 0" id="e"/><path d="M2.156 0v-18.25h4.11v14.781H13.5V0Zm0 0" id="f"/><path d="M5.297 0v-6.5L-.22-18.25h4.422l1.625 4.188c.258.699.504 1.37.734 2.015.239.637.489 1.309.75 2.016h.11c.258-.707.516-1.38.766-2.016.25-.644.503-1.316.765-2.015l1.656-4.188h4.313L9.406-6.5V0Zm0 0" id="g"/></defs><path d="M33.15 46.128v-5.985H0V58.77h33.15ZM0 58.771l33.15 20.07v-20.07Zm0-38.7h33.15v20.072H0Zm0 0" fill="#8C52FF"/><path d="M33.15 40.264v18.628h33.146V40.264Zm0-20.072h33.146v20.072H33.149Zm0 58.77c20.984-11.618 75.41-19.237 107.643-20.07H33.15Zm0 0" fill="#5E17EB"/><path d="M33.15 40.143 0 20.07 33.15 0l33.146 20.071Zm0 0" fill="#004AAD"/><use width="13.625" height="18.938" xlink:href="#a" transform="translate(90.964 49.234)" fill="#F0F"/><use width="13.625" height="18.938" xlink:href="#a" transform="translate(106.53 49.234)" fill="#F0F"/><use width="14.563" height="18.25" xlink:href="#b" transform="translate(122.096 49.234)" fill="#F0F"/><use width="16.391" height="18.25" xlink:href="#c" transform="translate(140.965 49.234)" fill="#F0F"/><use width="14.5" height="18.25" xlink:href="#d" transform="translate(157.007 49.234)" fill="#F0F"/><use width="11.703" height="18.25" xlink:href="#e" transform="translate(174.168 49.234)" fill="#F0F"/><use width="11.344" height="18.25" xlink:href="#f" transform="translate(189.51 49.234)" fill="#F0F"/><use width="15.141" height="18.25" xlink:href="#g" transform="translate(204.012 49.234)" fill="#F0F"/><use width="13.625" height="18.938" xlink:href="#a" transform="translate(89.914 49.234)" fill="#0FF"/><use width="13.625" height="18.938" xlink:href="#a" transform="translate(105.48 49.234)" fill="#0FF"/><use width="14.563" height="18.25" xlink:href="#b" transform="translate(121.046 49.234)" fill="#0FF"/><use width="16.391" height="18.25" xlink:href="#c" transform="translate(139.915 49.234)" fill="#0FF"/><use width="14.5" height="18.25" xlink:href="#d" transform="translate(155.957 49.234)" fill="#0FF"/><use width="11.703" height="18.25" xlink:href="#e" transform="translate(173.118 49.234)" fill="#0FF"/><use width="11.344" height="18.25" xlink:href="#f" transform="translate(188.46 49.234)" fill="#0FF"/><use width="15.141" height="18.25" xlink:href="#g" transform="translate(202.962 49.234)" fill="#0FF"/><use width="13.625" height="18.938" xlink:href="#a" transform="translate(90.44 49.234)"/><use width="13.625" height="18.938" xlink:href="#a" transform="translate(106.005 49.234)"/><use width="14.563" height="18.25" xlink:href="#b" transform="translate(121.571 49.234)"/><use width="16.391" height="18.25" xlink:href="#c" transform="translate(140.44 49.234)"/><use width="14.5" height="18.25" xlink:href="#d" transform="translate(156.482 49.234)"/><use width="11.703" height="18.25" xlink:href="#e" transform="translate(173.643 49.234)"/><g transform="translate(-59.163 -152.7)"><use width="11.344" height="18.25" xlink:href="#f" transform="translate(248.148 201.934)"/></g><g transform="translate(-59.163 -152.7)"><use width="15.141" height="18.25" xlink:href="#g" transform="translate(262.65 201.934)"/></g></svg>