<?xml version="1.0" standalone="no"?>
<!DOCTYPE svg PUBLIC "-//W3C//DTD SVG 20010904//EN"
 "http://www.w3.org/TR/2001/REC-SVG-20010904/DTD/svg10.dtd">
<svg version="1.0" xmlns="http://www.w3.org/2000/svg"
 width="1752.000000pt" height="1752.000000pt" viewBox="0 0 1752.000000 1752.000000"
 preserveAspectRatio="xMidYMid meet">
<metadata>
Created by potrace 1.14, written by Peter Selinger 2001-2017
</metadata>
<g transform="translate(0.000000,1752.000000) scale(0.100000,-0.100000)"
fill="#000000" stroke="none">
<path d="M2595 11886 c-28 -18 -69 -44 -92 -57 -124 -72 -288 -174 -291 -181
-2 -4 -8 -8 -14 -8 -6 0 -44 -21 -86 -47 -87 -55 -109 -68 -137 -83 -11 -6
-32 -18 -47 -28 -50 -33 -121 -72 -129 -72 -5 0 -9 -3 -9 -8 0 -4 -17 -16 -37
-27 -21 -11 -40 -22 -43 -25 -3 -3 -75 -47 -160 -98 -136 -82 -734 -443 -815
-493 -16 -10 -43 -26 -60 -35 -16 -9 -52 -31 -80 -49 -27 -18 -69 -43 -92 -56
-23 -13 -98 -59 -168 -101 -69 -43 -130 -78 -134 -78 -5 0 -14 -7 -21 -16 -8
-8 -27 -22 -44 -30 -38 -18 -89 -47 -96 -55 -3 -3 -13 -8 -22 -12 -17 -6 -18
-89 -18 -1557 l0 -1550 55 -35 c30 -19 59 -35 65 -35 5 0 10 -4 10 -10 0 -5 5
-10 11 -10 6 0 30 -13 53 -28 33 -23 209 -129 334 -203 15 -9 143 -87 285
-173 142 -86 262 -156 267 -156 6 0 10 -4 10 -8 0 -5 15 -16 32 -25 18 -10 47
-26 63 -37 17 -10 41 -25 55 -33 49 -28 435 -261 440 -267 3 -3 18 -12 33 -20
15 -8 131 -78 258 -155 126 -77 237 -144 247 -150 9 -5 61 -37 115 -70 140
-85 170 -103 187 -111 31 -16 125 -78 128 -85 3 -6 78 27 92 41 5 6 190 93
284 135 65 29 326 134 349 140 4 2 9 4 12 5 3 1 8 3 13 4 4 1 16 7 27 12 11 6
34 15 50 19 35 10 35 10 55 18 8 3 58 20 110 37 52 18 104 36 115 40 19 8 158
51 180 56 6 1 30 9 54 18 24 9 47 13 52 10 5 -3 9 0 9 5 0 6 3 10 8 9 9 -2 88
19 135 37 20 8 37 13 37 10 0 -2 19 3 43 11 23 9 53 18 67 20 14 3 64 16 112
30 47 13 114 31 147 39 34 8 89 22 124 31 34 9 67 17 72 18 6 2 28 7 50 13 42
11 168 41 201 47 10 2 46 11 79 19 33 9 74 18 90 21 56 9 90 17 105 22 12 4
182 41 273 59 15 3 37 7 50 10 12 3 31 7 42 9 33 7 223 45 253 51 15 2 52 9
82 15 30 6 66 13 80 15 25 4 51 9 103 21 16 3 38 7 50 9 19 2 49 7 122 22 11
2 36 6 55 9 31 4 169 29 225 40 22 4 81 13 122 18 15 2 55 9 88 15 33 6 78 13
100 16 22 4 48 8 58 11 9 3 34 7 55 9 58 6 115 14 142 20 30 7 70 13 130 20
53 6 94 12 135 20 54 9 89 15 135 20 61 7 119 15 155 21 34 6 66 10 150 19 33
3 83 10 110 15 28 5 73 12 100 15 28 3 64 8 81 10 17 2 60 7 95 10 116 13 124
14 124 15 0 2 32 6 125 15 47 4 94 9 105 12 11 2 45 6 75 8 30 3 73 7 95 10
22 3 65 7 95 10 30 3 71 7 90 10 19 2 62 7 95 10 33 3 78 8 100 10 38 4 84 8
215 20 30 3 84 8 120 10 36 3 88 7 115 10 63 6 153 14 230 19 184 14 225 17
280 22 33 3 98 7 145 9 47 2 126 6 177 10 110 7 216 13 301 16 34 1 62 6 62
10 0 5 -1247 9 -2778 9 l-2778 0 1 1543 c0 1027 -3 1548 -10 1560 -5 9 -15 17
-22 17 -7 0 -13 3 -13 8 0 4 -9 12 -20 17 -11 6 -94 55 -185 110 -90 55 -174
104 -185 110 -11 5 -20 13 -20 17 0 5 -4 8 -9 8 -6 0 -80 43 -166 95 -85 52
-160 95 -164 95 -5 0 -11 4 -13 8 -3 7 -37 29 -162 101 -22 13 -43 27 -46 30
-3 3 -19 13 -35 22 -17 9 -90 53 -164 98 -73 44 -137 81 -142 81 -5 0 -9 4 -9
9 0 5 -8 11 -17 14 -10 4 -126 72 -258 153 -132 80 -253 154 -270 164 -16 9
-56 33 -87 53 -31 21 -62 37 -68 37 -5 0 -10 4 -10 9 0 5 -8 11 -17 15 -10 3
-31 15 -48 25 -16 11 -41 26 -55 34 -14 7 -74 44 -133 80 -60 37 -113 67 -118
67 -5 0 -9 5 -9 10 0 6 -4 10 -9 10 -5 0 -46 23 -91 51 -45 28 -87 52 -93 54
-7 2 -35 -11 -62 -29z"/>
<path d="M7750 9463 c-148 -21 -299 -116 -367 -230 -55 -94 -68 -230 -30 -333
49 -134 136 -209 352 -300 11 -5 42 -18 69 -29 27 -12 55 -21 62 -21 8 0 14
-4 14 -8 0 -4 22 -16 49 -26 86 -31 129 -86 122 -156 -9 -84 -115 -136 -220
-108 -51 14 -171 69 -171 79 0 5 -5 9 -11 9 -6 0 -25 10 -42 23 -31 22 -69 28
-83 14 -4 -4 -13 -2 -21 4 -10 9 -18 5 -36 -17 -12 -16 -30 -37 -39 -46 -10
-10 -18 -20 -18 -22 0 -2 -13 -19 -29 -38 -17 -18 -41 -46 -55 -62 l-25 -30
27 -24 c35 -30 115 -87 124 -87 4 0 13 -6 20 -12 6 -7 17 -13 23 -13 6 0 29
-8 51 -19 77 -37 188 -55 339 -55 193 0 278 21 394 98 167 110 237 308 175
493 -48 143 -128 204 -429 323 -201 80 -245 113 -245 185 0 27 7 52 20 68 29
36 98 61 154 54 50 -6 144 -48 195 -86 25 -19 36 -22 39 -13 3 10 7 10 18 1
11 -9 18 -9 29 1 10 9 15 9 15 1 0 -30 15 -15 145 147 5 7 16 19 23 27 19 21
1 43 -76 95 -74 49 -181 94 -262 108 -52 10 -246 13 -300 5z"/>
<path d="M8939 9451 c-36 -9 -73 -22 -83 -30 -9 -7 -16 -10 -16 -6 0 4 -6 2
-13 -4 -8 -6 -17 -8 -20 -4 -4 3 -7 1 -7 -5 0 -6 -9 -14 -21 -17 -32 -11 -132
-115 -156 -165 -27 -55 -37 -82 -34 -94 1 -4 -2 -13 -7 -20 -7 -9 -9 -151 -2
-151 2 0 4 -9 5 -20 4 -34 36 -97 74 -145 39 -49 69 -80 75 -80 3 0 24 -13 48
-28 24 -16 95 -50 158 -77 280 -117 330 -150 330 -218 0 -44 -31 -98 -68 -120
-82 -48 -244 -8 -373 93 -24 19 -40 25 -49 20 -8 -5 -19 -6 -24 -3 -36 23 -58
7 -147 -100 -87 -107 -89 -110 -72 -129 51 -57 216 -144 317 -168 90 -21 130
-24 256 -24 146 1 181 6 272 40 201 75 313 231 307 426 -2 79 -9 110 -42 177
-41 83 -145 171 -247 206 -3 1 -18 7 -33 13 -49 21 -131 54 -152 62 -11 4 -59
26 -107 50 -69 33 -90 48 -103 75 -19 42 -13 95 16 125 69 73 211 57 337 -37
24 -18 36 -22 46 -14 7 6 16 8 20 4 16 -17 67 -11 77 9 6 11 18 27 27 37 9 9
28 31 42 49 14 18 37 47 52 63 l27 31 -22 23 c-58 59 -158 115 -265 147 -91
28 -326 33 -423 9z"/>
<path d="M9867 9438 c-9 -5 -12 -181 -11 -720 1 -392 2 -719 3 -726 1 -10 45
-12 204 -10 l202 3 3 301 2 301 210 1 210 0 0 -304 0 -304 118 -1 c64 -1 121
-1 125 0 4 1 18 1 30 1 26 0 82 1 117 3 l25 2 0 727 c0 638 -2 727 -15 730
-23 6 -389 2 -395 -3 -2 -3 -5 -129 -5 -281 l-1 -275 -207 1 -207 1 -3 270
c-1 167 -6 273 -13 280 -11 11 -372 14 -392 3z"/>
<path d="M11631 9420 c-5 -14 -31 -92 -56 -175 -26 -82 -65 -206 -87 -275 -22
-69 -41 -132 -43 -140 -2 -8 -10 -35 -18 -60 -26 -79 -59 -185 -62 -200 -2 -8
-10 -34 -19 -57 -8 -24 -13 -43 -9 -43 3 0 1 -6 -4 -12 -9 -12 -62 -172 -67
-200 -1 -7 -7 -26 -13 -43 -10 -27 -45 -140 -49 -157 -1 -5 -2 -9 -4 -10 -1
-2 -3 -10 -5 -18 -2 -8 -6 -23 -10 -32 -6 -16 1 -18 66 -19 75 -1 313 2 337 3
7 1 15 13 18 27 3 14 8 33 10 41 2 8 3 17 3 20 0 3 5 19 11 35 7 17 13 37 15
45 6 30 26 106 37 143 l11 38 178 -2 178 -1 10 -32 c6 -17 13 -42 15 -56 3
-14 10 -43 16 -65 6 -22 15 -56 20 -75 21 -85 28 -112 32 -115 3 -3 76 -6 143
-5 11 1 78 1 150 1 71 0 131 2 134 5 3 2 0 19 -6 37 -6 17 -32 100 -58 182
-25 83 -50 161 -55 175 -10 29 -84 262 -85 270 -1 9 -56 183 -75 240 -17 50
-82 258 -85 270 -1 3 -7 25 -14 50 -7 25 -13 46 -12 48 1 1 -6 16 -14 32 -9
17 -14 30 -12 30 2 0 -5 28 -17 62 l-22 62 -237 1 -237 0 -9 -25z m265 -487
c10 -43 19 -82 20 -88 9 -30 47 -175 53 -201 5 -18 11 -37 15 -43 8 -12 4 -13
-89 -13 -36 0 -81 1 -101 1 -41 1 -40 -4 -10 106 10 33 19 67 21 75 2 8 4 16
5 18 2 1 3 5 4 10 21 96 53 212 57 212 4 0 15 -35 25 -77z"/>
<path d="M12654 9441 c-2 -2 -4 -332 -4 -733 l0 -728 98 -1 c200 -2 297 2 306
11 5 5 9 118 9 263 l-1 254 50 -1 c45 -1 70 -15 65 -37 -1 -3 4 -13 11 -22 14
-16 54 -90 133 -242 23 -44 58 -111 79 -150 l38 -70 92 -5 c51 -3 97 -2 103 2
6 4 18 4 26 0 9 -4 64 -5 124 -2 l107 5 -71 125 c-39 69 -87 154 -107 190 -19
36 -44 79 -54 95 -10 17 -21 37 -25 45 -4 8 -19 37 -35 63 -27 46 -37 84 -20
73 10 -6 112 70 145 109 27 33 81 125 73 125 -3 0 -1 12 5 28 15 35 19 73 19
152 0 157 -47 261 -154 343 -35 26 -66 47 -70 47 -5 0 -22 6 -39 14 -42 19
-116 34 -197 42 -73 7 -699 11 -706 5z m639 -280 c6 -6 18 -11 27 -11 19 -1
50 -27 74 -65 38 -59 21 -191 -33 -245 -51 -51 -97 -65 -216 -65 l-80 0 -1
204 -1 204 110 -6 c60 -3 114 -10 120 -16z"/>
<path d="M14022 8713 l1 -732 366 -2 c201 0 377 0 391 1 14 1 31 1 38 1 13 -1
93 -1 177 -1 l50 0 0 50 c0 28 -4 50 -9 50 -5 0 -4 6 1 13 7 10 8 34 4 142
l-1 25 -303 0 -302 0 -1 165 c0 106 4 165 11 166 5 0 116 2 245 3 129 2 237 4
240 4 3 1 5 62 4 135 l-1 132 -249 5 -249 5 0 144 0 143 293 1 292 0 0 141 0
141 -499 0 -499 0 0 -732z"/>
<path d="M15278 9442 c-19 -2 -28 -10 -30 -25 -2 -12 -2 -341 0 -731 l2 -708
35 4 c19 2 35 2 35 -2 0 -4 393 -4 635 0 11 1 78 1 150 1 71 0 131 1 133 3 7
7 7 156 0 156 -4 0 -4 9 0 20 4 11 6 38 4 60 l-4 40 -288 0 -287 0 0 585 c0
322 -3 589 -7 593 -7 6 -325 10 -378 4z"/>
<path d="M16229 9440 c-5 -3 5 -31 21 -62 16 -30 27 -58 24 -60 -2 -3 2 -11
11 -18 8 -7 15 -18 15 -25 0 -7 15 -43 34 -81 49 -98 120 -248 121 -254 0 -3
17 -39 36 -80 20 -41 55 -115 78 -165 23 -49 53 -111 67 -137 24 -47 24 -52
25 -313 l0 -265 57 0 c51 0 290 1 335 1 9 0 17 3 18 7 1 4 2 124 3 267 1 186
5 266 14 280 6 11 34 67 61 125 26 58 64 139 83 180 93 196 167 354 232 494
25 54 44 101 42 105 -2 3 -89 5 -193 5 -242 -2 -233 -1 -233 -19 0 -8 -4 -15
-8 -15 -5 0 -9 -6 -9 -12 -1 -12 -56 -160 -86 -228 -5 -14 -11 -28 -12 -32 -2
-5 -4 -10 -5 -13 -1 -3 -3 -8 -5 -12 -1 -5 -6 -19 -12 -33 -6 -14 -19 -50 -31
-80 -48 -129 -38 -132 -93 20 -27 74 -54 144 -59 155 -9 19 -53 135 -55 145
-1 3 -8 21 -17 41 -9 20 -19 45 -22 57 -5 13 -16 22 -29 23 -78 4 -401 3 -408
-1z"/>
<path d="M10870 7201 c0 -9 99 -6 108 4 3 3 -20 5 -51 5 -31 0 -57 -4 -57 -9z"/>
<path d="M10990 7206 c0 -2 7 -6 15 -10 8 -3 15 -1 15 4 0 6 -7 10 -15 10 -8
0 -15 -2 -15 -4z"/>
</g>
</svg>
